#!OML:ASF E:/inclinewalkrobotboard/Project1/Captureday1/Session1/subject1.ASF
:FULLY-SPECIFIED
:DEGREES
51
root 0 0 0 -1.1440851641247376 -2.8512918334560666 -0.8568741486476759
lowerback 10.955122211278193 0.5635784535343359 0.46431151999117104
upperback -1.135739446589874 0.8812554175043895 0.9030765951580662
thorax -7.321892545067388 0.405862895728021 0.44015340280154713
lowerneck -13.351213253779228 -1.3872514497097497 0.2465896436521417
upperneck 19.04405982833447 -1.37572716525084 -2.393863364857598
head 8.20239511307766 -0.796321539032646 -1.0203658664553115
rclavicle -4.56818502695401E-16 -2.500313641560044E-16
rhumerus -11.37332356469975 -6.506639668093735 -67.02551612245983
rradius 43.33284724784927
rwrist 12.2064484801271
rhand -23.73733432696929 -6.191746119803613
rfingers 7.125020000000132
rthumb 2.9644557014529997 -36.34367501063119
lclavicle -9.357582440544873E-16 -8.22765186522198E-16
lhumerus -10.913445628680954 -4.467704902707371 67.64485205451031
lradius 44.8536168902867
lwrist -5.891074587933815
lhand -33.8231598613838 -13.456846352113295
lfingers 7.125020000000124
lthumb -7.095520017484807 15.629827210647985
rfemur -30.17680756889417 2.2870033135675993 18.897783349062546
rtibia 46.81004553754046
rfoot -0.2131421795606716 -8.485520313295275
rtoes 3.3501543359217356
lfemur 18.698213940462487 -3.0880766435934395 -31.03147602371409
ltibia 24.925737712156412
lfoot -10.439767011747012 -7.999802638102293
ltoes -6.624797107771396
52
root 0 0 0 -1.146797980939978 -2.850464557780015 -0.8599571106754293
lowerback 10.954014525106203 0.5631779936826101 0.4650813994786422
upperback -1.132062402661337 0.8810346798607769 0.9047583298421955
thorax -7.317289598528068 0.40569101863521395 0.4415547995842578
lowerneck -13.358934014038255 -1.390652707340119 0.24194106020851208
upperneck 19.044153747284156 -1.3810808633828602 -2.387382405801856
head 8.20381887588144 -0.7985655274811119 -1.0179506206372468
rclavicle -4.574484972100127E-16 -2.5063676767056884E-16
rhumerus -11.378167490288131 -6.5106478976733655 -67.0284035519918
rradius 43.327985992670015
rwrist 12.204345378514981
rhand -23.735599115714347 -6.183863070787398
rfingers 7.125020000000132
rthumb 2.9662855857102235 -36.336946344036654
lclavicle -9.334003730099194E-16 -8.231415719030693E-16
lhumerus -10.87455347140203 -4.477549581363796 67.61741420216813
lradius 44.884527911171226
lwrist -5.911743288902759
lhand -33.836814865385634 -13.53015699152662
lfingers 7.125020000000123
lthumb -7.1083695908902085 15.56041060643798
rfemur -29.006547510911794 3.0851613436687293 19.69154376401687
rtibia 42.095604744529886
rfoot -2.00835373520232 -8.77679749485443
rtoes 2.6126880442476157
lfemur 18.927198643342294 -2.814313822627068 -30.865350012327124
ltibia 27.14477520526643
lfoot -9.49166465474958 -8.924846845255308
ltoes -7.035632931133574
53
root 0 0 0 -1.1555271669281684 -2.848069713029038 -0.8695644439505326
lowerback 10.950610173572686 0.5621203705388578 0.4680970716874538
upperback -1.1206698221036822 0.8804457103290373 0.9098918670888503
thorax -7.302633810680076 0.4052104837620682 0.4457895176729111
lowerneck -13.383852057114412 -1.4014015290538935 0.2271883617646529
upperneck 19.044918816200752 -1.3974706382547009 -2.366513515370415
head 8.208366395105257 -0.8055672011262635 -1.0102159911666586
rclavicle -4.582744704256787E-16 -2.4694160010542123E-16
rhumerus -11.473526939427945 -6.574614798067603 -67.08736311840948
rradius 43.23689989008734
rwrist 12.159082771201101
rhand -23.703388825826664 -6.026781594199836
rfingers 7.1250200000001325
rthumb 2.9990717353980703 -36.1837325241837
lclavicle -9.360170446599859E-16 -8.215287160377019E-16
lhumerus -11.00649555560317 -4.44603911827171 67.71213016867829
lradius 44.7791873726825
lwrist -5.838954704677344
lhand -33.79163375282129 -13.291391577656178
lfingers 7.125020000000124
lthumb -7.065003406604854 15.801782938034817
rfemur -24.12665623392538 4.7274397814718885 22.244116506847696
rtibia 33.97633246095331
rfoot -5.7028383133834515 -8.698238542848808
rtoes 1.823985196581553
lfemur 18.35978295358173 -2.3990308516599 -30.22004905562683
ltibia 30.666124773388802
lfoot -7.762254445854818 -10.188183730888927
ltoes -7.456243236825518
54
root 0 0 0 -1.1642735941773188 -2.8457741659630624 -0.8790525785236765
lowerback 10.947292344744685 0.5611768370609224 0.47139006870506905
upperback -1.1094845820809247 0.8799679952990422 0.9148806317638615
thorax -7.288047281867214 0.4047509540354533 0.4499260722948546
lowerneck -13.408899109692538 -1.412047613792667 0.21252848585579848
upperneck 19.04598663374846 -1.4135375033520734 -2.345562045101014
head 8.212866866890884 -0.8124916195707772 -1.0024289590889017
rclavicle -4.593571817528148E-16 -2.409298691939641E-16
rhumerus -11.594665172933658 -6.655208795452191 -67.16271211567371
rradius 43.120646281620544
rwrist 12.101316377236861
rhand -23.662444829412113 -5.827189195136592
rfingers 7.125020000000133
rthumb 3.0406487520636816 -35.986874640956806
lclavicle -9.40470483583849E-16 -8.194708128674206E-16
lhumerus -11.239262867890966 -4.389707544442912 67.87962515335867
lradius 44.59334874042131
lwrist -5.711218290958362
lhand -33.711334045525604 -12.864008166256495
lfingers 7.1250200000001245
lthumb -6.9881208420613845 16.228266196736584
rfemur -17.972051338047265 6.196712314087908 25.197294116251307
rtibia 27.814749921407728
rfoot -9.09422655535964 -8.159555442085786
rtoes 1.5992229837542682
lfemur 16.95263720920981 -2.0694674043154553 -29.282264484223028
ltibia 33.63770363656029
lfoot -6.074178512750638 -11.05181738927863
ltoes -7.596750893251854
